<?xml version="1.0" encoding="utf-8"?>
<!-- Generator: Adobe Illustrator 18.1.1, SVG Export Plug-In . SVG Version: 6.00 Build 0)  -->
<!DOCTYPE svg PUBLIC "-//W3C//DTD SVG 1.1//EN" "http://www.w3.org/Graphics/SVG/1.1/DTD/svg11.dtd">
<svg version="1.1" id="Created_By_Vectorportal.com"
	 xmlns="http://www.w3.org/2000/svg" xmlns:xlink="http://www.w3.org/1999/xlink" x="0px" y="0px" viewBox="0 0 612 792"
	 enable-background="new 0 0 612 792" xml:space="preserve">
<g>
	<path fill="#5B5B5B" stroke="#5B5B5B" stroke-width="0.6804" d="M0,64.9c39.1-13.4,80-27.5,80-27.5S39.7,18,1.6-0.3
		c0,0-0.6,0-1.6,0V64.9z"/>
	<path fill="#5C5C5C" stroke="#5C5C5C" stroke-width="0.6804" d="M1.6-0.3C39.7,18,80,37.4,80,37.4l16.7-17c0,0-29.7-9.7-63.5-20.7
		H1.6z"/>
	<path fill="#5D5D5D" stroke="#5D5D5D" stroke-width="0.6804" d="M33.2-0.3c33.9,11,63.5,20.7,63.5,20.7L162,4.9
		c0,0-12.5-2-31.6-5.2H33.2z"/>
	<path fill="#646464" stroke="#646464" stroke-width="0.6804" d="M130.4-0.3C149.5,2.8,162,4.9,162,4.9s21-2.3,46.6-5.2H130.4z"/>
	<path fill="#676767" stroke="#676767" stroke-width="0.6804" d="M96.7,20.4L80,37.4l82-32.6L96.7,20.4z"/>
	<path fill="#757575" stroke="#757575" stroke-width="0.6804" d="M162,4.9L80,37.4l155.5,60.2L162,4.9z"/>
	<path fill="#858585" stroke="#858585" stroke-width="0.6804" d="M162,4.9l73.5,92.7l21.1-22L162,4.9z"/>
	<path fill="#848484" stroke="#848484" stroke-width="0.6804" d="M208.6-0.3C183,2.5,162,4.9,162,4.9l94.6,70.7
		c0,0,27.3-53.1,39-75.9H208.6z"/>
	<path fill="#999999" stroke="#999999" stroke-width="0.6804" d="M295.6-0.3c-11.7,22.8-39,75.9-39,75.9l129.7,51.7
		c0,0-59.3-95.7-79.1-127.6H295.6z"/>
	<path fill="#9C9C9C" stroke="#9C9C9C" stroke-width="0.6804" d="M307.2-0.3c19.8,31.9,79.1,127.6,79.1,127.6l36-123.5
		c0,0-15.1-1.8-34.7-4.1H307.2z"/>
	<path fill="#9B9B9B" stroke="#9B9B9B" stroke-width="0.6804" d="M387.6-0.3c19.6,2.3,34.7,4.1,34.7,4.1s5.5-1.5,14.9-4.1H387.6z"/>
	<path fill="#A9A9A9" stroke="#A9A9A9" stroke-width="0.6804" d="M422.3,3.8l-36,123.5l160.1-71.8L422.3,3.8z"/>
	<path fill="#A5A5A5" stroke="#A5A5A5" stroke-width="0.6804" d="M473.1-0.3c-25.6,2.1-50.8,4.1-50.8,4.1l124.1,51.7
		c0,0-13.6-42-18-55.8H473.1z"/>
	<path fill="#A1A1A1" stroke="#A1A1A1" stroke-width="0.6804" d="M437.2-0.3c-9.4,2.6-14.9,4.1-14.9,4.1s25.2-2,50.8-4.1H437.2z"/>
	<path fill="#A8A8A8" stroke="#A8A8A8" stroke-width="0.6804" d="M612-0.3c-8.6,0-83.6,0-83.6,0c4.5,13.8,18,55.8,18,55.8
		S603.3,7.7,612,0.4V-0.3z"/>
	<path fill="#AAAAAA" stroke="#AAAAAA" stroke-width="0.6804" d="M612,0.4c-8.7,7.3-65.6,55.1-65.6,55.1s57.8-17.8,65.6-20.1V0.4z"
		/>
	<path fill="#919191" stroke="#919191" stroke-width="0.6804" d="M0,230c39.7-0.6,82.1-1.3,82.1-1.3S40,190.1,0,153.4V230z"/>
	<path fill="#7A7A7A" stroke="#7A7A7A" stroke-width="0.6804" d="M0,153.4c40,36.6,82.1,75.3,82.1,75.3L80,37.4c0,0-40.9,14-80,27.5
		V153.4z"/>
	<path fill="#969696" stroke="#969696" stroke-width="0.6804" d="M80,37.4l2.1,191.3l81.4-27.1L80,37.4z"/>
	<path fill="#888888" stroke="#888888" stroke-width="0.6804" d="M80,37.4l83.4,164.2l72-104L80,37.4z"/>
	<path fill="#B1B1B1" stroke="#B1B1B1" stroke-width="0.6804" d="M235.5,97.6l-72,104l140.4,9.5L235.5,97.6z"/>
	<path fill="#A6A6A6" stroke="#A6A6A6" stroke-width="0.6804" d="M235.5,97.6l68.3,113.5L256.6,75.6L235.5,97.6z"/>
	<path fill="#B2B2B2" stroke="#B2B2B2" stroke-width="0.6804" d="M256.6,75.6l47.2,135.5l82.5-83.8L256.6,75.6z"/>
	<path fill="#C9C9C9" stroke="#C9C9C9" stroke-width="0.6804" d="M386.3,127.3l-82.5,83.8l83.5,0.3L386.3,127.3z"/>
	<path fill="#D5D5D5" stroke="#D5D5D5" stroke-width="0.6804" d="M386.3,127.3l1,84.1l187.7,25.3L386.3,127.3z"/>
	<path fill="#C8C8C8" stroke="#C8C8C8" stroke-width="0.6804" d="M386.3,127.3l188.8,109.4L546.4,55.5L386.3,127.3z"/>
	<path fill="#BDBDBD" stroke="#BDBDBD" stroke-width="0.6804" d="M612,35.4c-7.8,2.4-65.6,20.1-65.6,20.1l28.7,181.2
		c0,0,31.3-166.9,36.9-197V35.4z"/>
	<path fill="#D8D8D8" stroke="#D8D8D8" stroke-width="0.6804" d="M612,39.7c-5.6,30.1-36.9,197-36.9,197s16.2-1.4,36.9-3.3V39.7z"/>
	<path fill="#A4A4A4" stroke="#A4A4A4" stroke-width="0.6804" d="M0,367.5c13.6-2.5,39-7.1,39-7.1s-17.9-21.7-39-47.3V367.5z"/>
	<path fill="#A4A4A4" stroke="#A4A4A4" stroke-width="0.6804" d="M0,313.1c21.1,25.6,39,47.3,39,47.3l43.1-131.7
		c0,0-42.4,0.7-82.1,1.3V313.1z"/>
	<path fill="#AFAFAF" stroke="#AFAFAF" stroke-width="0.6804" d="M82.1,228.7L39,360.4l109.1-91.5L82.1,228.7z"/>
	<path fill="#AEAEAE" stroke="#AEAEAE" stroke-width="0.6804" d="M82.1,228.7l66,40.2l15.4-67.3L82.1,228.7z"/>
	<path fill="#BBBBBB" stroke="#BBBBBB" stroke-width="0.6804" d="M163.5,201.6l-15.4,67.3l155.8-57.8L163.5,201.6z"/>
	<path fill="#CCCCCC" stroke="#CCCCCC" stroke-width="0.6804" d="M303.9,211.1l-155.8,57.8L320,341L303.9,211.1z"/>
	<path fill="#D6D6D6" stroke="#D6D6D6" stroke-width="0.6804" d="M303.9,211.1L320,341l67.3-129.6L303.9,211.1z"/>
	<path fill="#E1E1E1" stroke="#E1E1E1" stroke-width="0.6804" d="M387.4,211.4L320,341l115-34.6L387.4,211.4z"/>
	<path fill="#E5E5E5" stroke="#E5E5E5" stroke-width="0.6804" d="M387.4,211.4l47.7,94.9l140.1-69.6L387.4,211.4z"/>
	<path fill="#F1F1F1" stroke="#F1F1F1" stroke-width="0.6804" d="M575.1,236.7L435,306.4l118.9,50.4L575.1,236.7z"/>
	<path fill="#F2F2F2" stroke="#F2F2F2" stroke-width="0.6804" d="M612,331.1c-13.3-34.1-36.9-94.4-36.9-94.4l-21.2,120
		c0,0,39.9-1.7,58.1-2.5V331.1z"/>
	<path fill="#F0F0F0" stroke="#F0F0F0" stroke-width="0.6804" d="M612,233.5c-20.7,1.8-36.9,3.3-36.9,3.3s23.6,60.3,36.9,94.4V233.5
		z"/>
	<path fill="#8E8E8E" stroke="#8E8E8E" stroke-width="0.6804" d="M0,515.1c1.5,0.9,2.4,1.4,2.4,1.4s-1-13.8-2.4-32.9V515.1z"/>
	<path fill="#989898" stroke="#989898" stroke-width="0.6804" d="M0,483.7c1.4,19.1,2.4,32.9,2.4,32.9l56.2-112.8
		c0,0-40.7-21-58.6-30.3V483.7z"/>
	<path fill="#A3A3A3" stroke="#A3A3A3" stroke-width="0.6804" d="M0,373.4c18,9.3,58.6,30.3,58.6,30.3L39,360.4c0,0-25.4,4.6-39,7.1
		V373.4z"/>
	<path fill="#ADADAD" stroke="#ADADAD" stroke-width="0.6804" d="M39,360.4l19.7,43.3l89.4-134.7L39,360.4z"/>
	<path fill="#ADADAD" stroke="#ADADAD" stroke-width="0.6804" d="M148.1,268.9L58.6,403.7l87.8,63.8L148.1,268.9z"/>
	<path fill="#BABABA" stroke="#BABABA" stroke-width="0.6804" d="M148.1,268.9l-1.7,198.5l136-77.1L148.1,268.9z"/>
	<path fill="#CBCBCB" stroke="#CBCBCB" stroke-width="0.6804" d="M148.1,268.9l134.3,121.4L320,341L148.1,268.9z"/>
	<path fill="#D7D7D7" stroke="#D7D7D7" stroke-width="0.6804" d="M320,341l-37.6,49.3l153.3,15.4L320,341z"/>
	<path fill="#E2E2E2" stroke="#E2E2E2" stroke-width="0.6804" d="M320,341l115.7,64.8l-0.6-99.4L320,341z"/>
	<path fill="#E9E9E9" stroke="#E9E9E9" stroke-width="0.6804" d="M435,306.4l0.6,99.4l118.2-49L435,306.4z"/>
	<path fill="#EAEAEA" stroke="#EAEAEA" stroke-width="0.6804" d="M553.9,356.7l-118.2,49l143.3,2.5L553.9,356.7z"/>
	<path fill="#E9E9E9" stroke="#E9E9E9" stroke-width="0.6804" d="M553.9,356.7l25,51.5l25.6-16.3L553.9,356.7z"/>
	<path fill="#EDEDED" stroke="#EDEDED" stroke-width="0.6804" d="M612,354.3c-18.2,0.8-58.1,2.5-58.1,2.5l50.6,35.1
		c0,0,3.6-8.4,7.5-17.4V354.3z"/>
	<path fill="#E8E8E8" stroke="#E8E8E8" stroke-width="0.6804" d="M612,374.5c-3.8,8.9-7.5,17.4-7.5,17.4s2.8,0.1,7.5,0.3V374.5z"/>
	<path fill="#696969" stroke="#696969" stroke-width="0.6804" d="M0,530c1.5-8.4,2.4-13.5,2.4-13.5S1.5,516,0,515.1V530z"/>
	<path fill="#949494" stroke="#949494" stroke-width="0.6804" d="M58.6,403.7L2.4,516.5l144-49L58.6,403.7z"/>
	<path fill="#808080" stroke="#808080" stroke-width="0.6804" d="M146.4,467.5l-144,49l21,44.3L146.4,467.5z"/>
	<path fill="#777777" stroke="#777777" stroke-width="0.6804" d="M146.4,467.5l-123,93.4l71.1,72L146.4,467.5z"/>
	<path fill="#818181" stroke="#818181" stroke-width="0.6804" d="M146.4,467.5L94.6,632.8l103.9-98.6L146.4,467.5z"/>
	<path fill="#A8A8A8" stroke="#A8A8A8" stroke-width="0.6804" d="M146.4,467.5l52.1,66.8l83.9-143.9L146.4,467.5z"/>
	<path fill="#AFAFAF" stroke="#AFAFAF" stroke-width="0.6804" d="M282.4,390.3l-83.9,143.9l122.9-11.9L282.4,390.3z"/>
	<path fill="#C9C9C9" stroke="#C9C9C9" stroke-width="0.6804" d="M282.4,390.3l38.9,132l114.3-116.6L282.4,390.3z"/>
	<path fill="#BBBBBB" stroke="#BBBBBB" stroke-width="0.6804" d="M435.7,405.8L321.4,522.3l144.3,61.4L435.7,405.8z"/>
	<path fill="#C6C6C6" stroke="#C6C6C6" stroke-width="0.6804" d="M435.7,405.8l30,177.9l76.9-83.4L435.7,405.8z"/>
	<path fill="#DBDBDB" stroke="#DBDBDB" stroke-width="0.6804" d="M435.7,405.8l106.9,94.5l36.4-92.1L435.7,405.8z"/>
	<path fill="#C9C9C9" stroke="#C9C9C9" stroke-width="0.6804" d="M612,479.9c-17.2-37.2-33.1-71.7-33.1-71.7l-36.4,92.1
		c0,0,37.8,24,69.4,44.1V479.9z"/>
	<path fill="#D6D6D6" stroke="#D6D6D6" stroke-width="0.6804" d="M612,419c-4.5-16.3-7.5-27.1-7.5-27.1l-25.6,16.3
		c0,0,15.9,34.5,33.1,71.7V419z"/>
	<path fill="#D5D5D5" stroke="#D5D5D5" stroke-width="0.6804" d="M612,392.2c-4.7-0.2-7.5-0.3-7.5-0.3s3,10.8,7.5,27.1V392.2z"/>
	<path fill="#606060" stroke="#606060" stroke-width="0.6804" d="M0,618.6c12-29.7,23.4-57.7,23.4-57.7l-21-44.3
		c0,0-0.9,5.1-2.4,13.5V618.6z"/>
	<path fill="#575757" stroke="#575757" stroke-width="0.6804" d="M0,674.9c36.1-16.1,94.6-42.1,94.6-42.1l-71.1-72
		c0,0-11.4,28-23.4,57.7V674.9z"/>
	<path fill="#757575" stroke="#757575" stroke-width="0.6804" d="M198.5,534.2L94.6,632.8l84.1-8.9L198.5,534.2z"/>
	<path fill="#8E8E8E" stroke="#8E8E8E" stroke-width="0.6804" d="M198.5,534.2l-19.9,89.7l142.7-101.6L198.5,534.2z"/>
	<path fill="#888888" stroke="#888888" stroke-width="0.6804" d="M321.4,522.3L178.6,623.9l147,64.6L321.4,522.3z"/>
	<path fill="#8E8E8E" stroke="#8E8E8E" stroke-width="0.6804" d="M321.4,522.3l4.3,166.1l41.6-35.1L321.4,522.3z"/>
	<path fill="#9F9F9F" stroke="#9F9F9F" stroke-width="0.6804" d="M321.4,522.3l45.9,131l98.4-69.6L321.4,522.3z"/>
	<path fill="#989898" stroke="#989898" stroke-width="0.6804" d="M465.7,583.7l-98.4,69.6l158.7,10.9L465.7,583.7z"/>
	<path fill="#ABABAB" stroke="#ABABAB" stroke-width="0.6804" d="M465.7,583.7l60.2,80.5l16.6-163.9L465.7,583.7z"/>
	<path fill="#AFAFAF" stroke="#AFAFAF" stroke-width="0.6804" d="M612,544.4c-31.6-20-69.4-44.1-69.4-44.1l-16.6,163.9
		c0,0,48.7-35.5,86.1-62.6V544.4z"/>
	<path fill="#9B9B9B" stroke="#9B9B9B" stroke-width="0.6804" d="M612,601.6c-37.3,27.2-86.1,62.6-86.1,62.6s50.1,16.6,86.1,28.5
		V601.6z"/>
	<path fill="#383838" stroke="#383838" stroke-width="0.6804" d="M30.9,792C23.8,779.4,11.5,757.5,0,737v54.7c0.3,0.1,0.7,0.2,1,0.3
		H30.9z"/>
	<path fill="#424242" stroke="#424242" stroke-width="0.6804" d="M40.6,792c12.7-37.3,54-159.2,54-159.2s-58.4,26-94.6,42.1V737
		c11.5,20.5,23.8,42.3,30.9,54.9H40.6z"/>
	<path fill="#464646" stroke="#464646" stroke-width="0.6804" d="M65.9,792c39.5-14.7,105.5-39.2,105.5-39.2l-76.8-120
		c0,0-41.3,121.8-54,159.2H65.9z"/>
	<path fill="#5D5D5D" stroke="#5D5D5D" stroke-width="0.6804" d="M94.6,632.8l76.8,120l7.3-128.9L94.6,632.8z"/>
	<path fill="#6A6A6A" stroke="#6A6A6A" stroke-width="0.6804" d="M178.6,623.9l-7.3,128.9l154.3-64.3L178.6,623.9z"/>
	<path fill="#6B6B6B" stroke="#6B6B6B" stroke-width="0.6804" d="M325.6,688.5l-154.3,64.3l158.1,25.3L325.6,688.5z"/>
	<path fill="#757575" stroke="#757575" stroke-width="0.6804" d="M325.6,688.5l3.9,89.6l34-27.6L325.6,688.5z"/>
	<path fill="#7D7D7D" stroke="#7D7D7D" stroke-width="0.6804" d="M325.6,688.5l37.9,62l3.7-97.1L325.6,688.5z"/>
	<path fill="#878787" stroke="#878787" stroke-width="0.6804" d="M367.3,653.4l-3.7,97.1l162.3-86.2L367.3,653.4z"/>
	<path fill="#828282" stroke="#828282" stroke-width="0.6804" d="M507.8,792c4.8-33.7,18.2-127.8,18.2-127.8l-162.3,86.2
		c0,0,68.9,25.8,110.9,41.5H507.8z"/>
	<path fill="#8B8B8B" stroke="#8B8B8B" stroke-width="0.6804" d="M523.1,792c21.9-15.3,60.4-42.2,88.9-62.1v-37.1
		c-36-11.9-86.1-28.5-86.1-28.5s-13.4,94-18.2,127.8H523.1z"/>
	<path fill="#888888" stroke="#888888" stroke-width="0.6804" d="M553,792c18.4-4.7,39.8-10.1,59-14.9v-47.2
		c-28.5,19.9-67.1,46.8-88.9,62.1H553z"/>
	<path fill="#6D6D6D" stroke="#6D6D6D" stroke-width="0.6804" d="M424.8,792c-46.3-6.8-95.3-13.9-95.3-13.9s-86.2,7.3-165,13.9
		H424.8z"/>
	<path fill="#555555" stroke="#555555" stroke-width="0.6804" d="M164.6,792c78.8-6.6,165-13.9,165-13.9l-158.1-25.3
		c0,0-66,24.5-105.5,39.2H164.6z"/>
	<path fill="#7D7D7D" stroke="#7D7D7D" stroke-width="0.6804" d="M474.4,792c-42-15.7-110.9-41.5-110.9-41.5l-34,27.6
		c0,0,48.9,7.1,95.3,13.9H474.4z"/>
	<path fill="#747474" stroke="#747474" stroke-width="0.6804" d="M612,792C612,791.9,612,791.9,612,792c-0.3-0.1-0.6,0-0.9,0H612z"
		/>
	<path fill="#858585" stroke="#858585" stroke-width="0.6804" d="M611.1,792c0.3,0,0.6-0.1,0.9-0.1v-14.8
		c-19.3,4.9-40.6,10.3-59,14.9H611.1z"/>
</g>
<g>
	<rect x="611.2" opacity="0.7" fill="#232323" width="0.8" height="792"/>
	<rect opacity="0.7" fill="#232323" width="0.8" height="792"/>
</g>
<rect opacity="0.73" fill="#232323" width="611.1" height="792"/>
</svg>
