<?xml version="1.0" encoding="utf-8"?>
<!-- Generator: Adobe Illustrator 18.1.1, SVG Export Plug-In . SVG Version: 6.00 Build 0)  -->
<!DOCTYPE svg PUBLIC "-//W3C//DTD SVG 1.1//EN" "http://www.w3.org/Graphics/SVG/1.1/DTD/svg11.dtd">
<svg version="1.1" id="Layer_1" xmlns="http://www.w3.org/2000/svg" xmlns:xlink="http://www.w3.org/1999/xlink" x="0px" y="0px"
	 viewBox="0 0 904.2 202.7" enable-background="new 0 0 904.2 202.7" xml:space="preserve">
<g>
	<path fill="#0376B2" d="M0,123.2v-15l6.1-0.6c3.2-0.4,5.4-1.5,5.4-5.2V16.3L0.9,15.8V0h84.9v30.8l-18.9,1.3v-7.4
		c0-3.5-0.4-5.7-5.4-5.7H34.1v31.7h42.8v18.9H34.1v34.7h29.8c4.8,0,5.2-2.2,5.2-5.9V89L88,90.3v33H0z"/>
	<path fill="#0376B2" d="M169.8,105.6c-6.5,9.3-17.8,14.5-30,14.5c-18.5,0-28.7-10.2-28.7-32.1V50.8c0-3.9-1.5-5-4.6-5.2l-5.9-0.4
		V30h32.6v53.2c0,11.3,1.9,19.8,13.7,19.8c13,0,19.8-8.7,19.8-18.3V51.2c0-4.1-1.1-5.6-4.6-5.6l-5.9-0.4V30h32.6v89.7
		c0,30.6-15.4,43.2-43,43.2c-11.7,0-27.1-2.2-34.8-6.1V131l17.6-1.5v8.9c0,3.5,0.9,5.4,4.3,6.7c3.5,1.3,7.6,1.9,13.2,1.9
		c17,0,23.9-10.4,23.9-27.2V105.6z"/>
	<path fill="#0376B2" d="M284.5,53c0,28.5-31,33.4-52.8,33.5c0.7,12,7,21.9,22.8,21.9c10.9,0,18.9-5,23.4-8.2l7,15
		c-3,2.6-15.2,10.4-32.6,10.4c-31.5,0-43.7-19.3-43.7-46.9c0-27.4,15.4-51.5,45.8-51.5C272.4,27.2,284.5,36.5,284.5,53z M253,43
		c-14.8,0-21.5,14.3-22.1,28c13.7-0.2,33.2-3.3,33.2-17.6C264.1,46.5,259.6,43,253,43z"/>
	<path fill="#0376B2" d="M342.1,108.2l6.1-0.6c3.2-0.4,5.4-1.5,5.4-5.2V16.3L343,15.8V0h89.5v30.8l-18.9,1.3v-7.4
		c0-3.5-0.4-5.7-5.4-5.7h-32.1v32.8h45.6v18.9h-45.6v36.3l16.5,0.6v15.8h-50.6V108.2z"/>
	<path fill="#0376B2" d="M525.8,102.7c0,4.1,1.1,5.2,4.6,5.4l5.9,0.4v14.8h-29.5v-10.7l-0.6-0.2c-5.7,8.3-15.2,13.3-25.4,13.3
		c-26.1,0-37.1-18.5-37.1-45c0-32.6,15.6-53.4,48.9-53.4c6.1,0,19.6,1.5,33,6.5V102.7z M504.3,45.8c-2.8-1.3-8.5-2.4-14.3-2.4
		c-17.6,0-23.5,16.5-23.5,36.5c0,15.4,3.7,30,19.3,30c11.5,0,18.5-8.2,18.5-16.1V45.8z"/>
	<path fill="#0376B2" d="M596.6,42.4c-8,0-13.9,3.7-13.9,11.1c0,8.5,8.9,11.1,17.6,13.5c14.5,4.1,30.4,8.7,30.4,28.9
		c0,19.3-15.9,29.7-35.8,29.7c-11.7,0-26.3-1.9-34.1-5.7V94.1l16.7-1.3v8.9c0,3.5,0.9,5,4.3,6.3c3.5,1.3,7.8,1.9,12.2,1.9
		c9.3,0,14.6-3.5,14.6-11.3c0-8.9-8.2-10.6-18.2-13.2c-13.7-3.5-28.7-8.2-28.7-28.7c0-19.3,16.3-29.5,35.8-29.5
		c12.6,0,23.5,3.9,30.8,7.4v22.2l-16.7,1.3v-7.8c0-3.5-0.9-5-4.3-6.3C603.8,42.8,601,42.4,596.6,42.4z"/>
	<path fill="#0376B2" d="M684.2,10.4V30h24.6L707,45.6h-22.8v48.7c0,11.3,4.4,14.6,12,14.6c5,0,9.6-2,12.6-3.9l5.6,14.3
		c-5.6,3.9-14.8,6.5-23.5,6.5c-28.9,0-28.7-17.8-28.7-30.8V45.6H649l1.9-13.5c13-1.1,17.4-11.1,21.3-21.7H684.2z"/>
	<path fill="#0376B2" d="M805.6,53c0,28.5-31,33.4-52.8,33.5c0.7,12,7,21.9,22.8,21.9c10.9,0,18.9-5,23.4-8.2l7,15
		c-3,2.6-15.2,10.4-32.6,10.4c-31.5,0-43.7-19.3-43.7-46.9c0-27.4,15.4-51.5,45.8-51.5C793.6,27.2,805.6,36.5,805.6,53z M774.1,43
		c-14.8,0-21.5,14.3-22.1,28c13.7-0.2,33.2-3.3,33.2-17.6C785.2,46.5,780.8,43,774.1,43z"/>
	<path fill="#0376B2" d="M841.2,51.2c0-4.1-1.1-5.4-4.6-5.6l-7.8-0.6V30h31.3v13.9c4.3-9.3,14.1-16.7,26.3-16.7
		c6.1,0,11.7,1.1,17.8,4.1v27.6L887,60.2v-8.5c0-2.2-0.4-3.9-1.9-4.6c-1.7-0.7-3-0.9-5-0.9c-10,0-16.9,8-16.9,18.7v43l16.1,0.7v14.6
		h-49.7v-14.1l6.1-0.6c3.5-0.4,5.4-1.5,5.4-6.1V51.2z"/>
</g>
<g>
	<path fill="#6D6E71" d="M227.1,179.6v14.3h-4.6v-34.4h9.7c2.2,0,4.1,0.2,5.6,0.7c1.6,0.4,2.9,1.1,3.9,1.9c1,0.8,1.8,1.8,2.3,3
		s0.7,2.5,0.7,3.9c0,1.2-0.2,2.3-0.6,3.4s-0.9,2-1.7,2.8c-0.7,0.8-1.6,1.6-2.7,2.1c-1,0.6-2.2,1-3.6,1.3c0.6,0.3,1.1,0.8,1.5,1.5
		l10,13.6h-4.1c-0.8,0-1.5-0.3-1.9-1l-8.9-12.3c-0.3-0.4-0.6-0.7-0.9-0.8c-0.3-0.2-0.8-0.3-1.4-0.3H227.1z M227.1,176.2h4.9
		c1.4,0,2.6-0.2,3.6-0.5c1-0.3,1.9-0.8,2.6-1.4c0.7-0.6,1.2-1.3,1.6-2.1c0.4-0.8,0.5-1.8,0.5-2.8c0-2-0.7-3.6-2-4.6
		c-1.4-1-3.4-1.6-6-1.6h-5.1V176.2z"/>
	<path fill="#6D6E71" d="M265.6,169.3c1.5,0,2.8,0.2,4,0.7c1.2,0.5,2.3,1.2,3.2,2.1c0.9,0.9,1.6,2.1,2.1,3.4
		c0.5,1.4,0.8,2.9,0.8,4.6c0,0.7-0.1,1.1-0.2,1.3c-0.1,0.2-0.4,0.3-0.8,0.3h-16.2c0,1.5,0.2,2.9,0.6,4c0.4,1.1,0.9,2.1,1.6,2.8
		c0.7,0.8,1.5,1.3,2.4,1.7c0.9,0.4,2,0.6,3.1,0.6c1.1,0,2-0.1,2.8-0.4c0.8-0.2,1.4-0.5,2-0.8c0.6-0.3,1-0.6,1.4-0.8
		c0.4-0.2,0.7-0.4,1-0.4c0.4,0,0.6,0.1,0.8,0.4l1.2,1.6c-0.5,0.6-1.2,1.2-1.9,1.7c-0.7,0.5-1.5,0.9-2.4,1.2s-1.7,0.5-2.6,0.7
		c-0.9,0.2-1.8,0.2-2.7,0.2c-1.7,0-3.2-0.3-4.6-0.9c-1.4-0.6-2.6-1.4-3.7-2.5c-1-1.1-1.8-2.4-2.4-4.1s-0.9-3.5-0.9-5.6
		c0-1.7,0.3-3.3,0.8-4.7c0.5-1.5,1.3-2.7,2.2-3.8s2.2-1.9,3.6-2.5S263.9,169.3,265.6,169.3z M265.7,172.4c-2.1,0-3.7,0.6-4.9,1.8
		c-1.2,1.2-1.9,2.8-2.2,5h13.2c0-1-0.1-1.9-0.4-2.7c-0.3-0.8-0.7-1.5-1.2-2.1c-0.5-0.6-1.2-1.1-1.9-1.4
		C267.6,172.6,266.7,172.4,265.7,172.4z"/>
	<path fill="#6D6E71" d="M302.8,193.9h-1.9c-0.4,0-0.8-0.1-1-0.2c-0.3-0.1-0.4-0.4-0.5-0.8l-0.5-2.3c-0.6,0.6-1.3,1.1-1.9,1.5
		c-0.6,0.5-1.2,0.8-1.9,1.2s-1.4,0.5-2.1,0.7c-0.8,0.2-1.6,0.2-2.5,0.2c-0.9,0-1.8-0.1-2.6-0.4c-0.8-0.3-1.5-0.7-2.1-1.2
		s-1.1-1.2-1.5-2c-0.4-0.8-0.5-1.8-0.5-2.9c0-1,0.3-1.9,0.8-2.8s1.4-1.7,2.6-2.4s2.7-1.3,4.6-1.7c1.9-0.4,4.2-0.7,7-0.7v-1.9
		c0-1.9-0.4-3.3-1.2-4.3c-0.8-1-2-1.5-3.6-1.5c-1,0-1.9,0.1-2.6,0.4s-1.3,0.6-1.8,0.9c-0.5,0.3-1,0.6-1.3,0.9
		c-0.4,0.3-0.7,0.4-1.1,0.4c-0.3,0-0.5-0.1-0.8-0.2c-0.2-0.2-0.4-0.3-0.5-0.6l-0.8-1.4c1.3-1.3,2.8-2.3,4.3-2.9c1.5-0.6,3.3-1,5.2-1
		c1.4,0,2.6,0.2,3.6,0.7c1.1,0.4,1.9,1.1,2.7,1.9c0.7,0.8,1.3,1.8,1.6,2.9c0.4,1.1,0.6,2.4,0.6,3.7V193.9z M291.8,191.3
		c0.8,0,1.4-0.1,2.1-0.2c0.6-0.2,1.2-0.4,1.8-0.6c0.6-0.3,1.1-0.6,1.6-1c0.5-0.4,1-0.9,1.5-1.4v-5c-2,0-3.6,0.1-5,0.4
		c-1.4,0.2-2.5,0.6-3.4,1c-0.9,0.4-1.5,0.9-1.9,1.4s-0.6,1.2-0.6,1.8c0,0.6,0.1,1.2,0.3,1.7c0.2,0.5,0.5,0.8,0.8,1.1
		c0.4,0.3,0.8,0.5,1.2,0.7S291.2,191.3,291.8,191.3z"/>
	<path fill="#6D6E71" d="M317.9,158.6v35.3h-4.3v-35.3H317.9z"/>
	<path fill="#6D6E71" d="M360.6,164.9c-0.1,0.2-0.3,0.4-0.5,0.5c-0.2,0.1-0.4,0.2-0.6,0.2c-0.3,0-0.6-0.1-0.9-0.4
		c-0.4-0.3-0.8-0.6-1.4-0.9c-0.6-0.3-1.2-0.6-2-0.9c-0.8-0.3-1.7-0.4-2.8-0.4c-1,0-2,0.1-2.8,0.4c-0.8,0.3-1.5,0.7-2,1.1
		s-0.9,1-1.2,1.7c-0.3,0.6-0.4,1.3-0.4,2.1c0,1,0.2,1.8,0.7,2.4c0.5,0.6,1.1,1.2,1.9,1.6c0.8,0.4,1.7,0.8,2.6,1.2c1,0.3,2,0.7,3,1
		c1,0.4,2,0.7,3,1.2c1,0.4,1.9,1,2.6,1.7c0.8,0.7,1.4,1.5,1.9,2.5s0.7,2.2,0.7,3.6c0,1.5-0.3,2.9-0.8,4.2c-0.5,1.3-1.3,2.5-2.2,3.4
		c-1,1-2.2,1.7-3.6,2.3c-1.4,0.6-3.1,0.8-4.9,0.8c-2.2,0-4.2-0.4-6.1-1.2c-1.8-0.8-3.4-1.9-4.7-3.3l1.3-2.2c0.1-0.2,0.3-0.3,0.5-0.4
		s0.4-0.2,0.6-0.2c0.3,0,0.7,0.2,1.2,0.5s1,0.8,1.6,1.2s1.4,0.8,2.3,1.2c0.9,0.4,2,0.5,3.4,0.5c1.1,0,2.1-0.2,2.9-0.5
		c0.9-0.3,1.6-0.7,2.2-1.3c0.6-0.6,1.1-1.2,1.4-2c0.3-0.8,0.5-1.6,0.5-2.6c0-1-0.2-1.9-0.7-2.6c-0.5-0.7-1.1-1.2-1.9-1.7
		c-0.8-0.4-1.6-0.8-2.6-1.1c-1-0.3-2-0.6-3-1c-1-0.3-2-0.7-3-1.1c-1-0.4-1.9-1-2.6-1.7c-0.8-0.7-1.4-1.5-1.9-2.6
		c-0.5-1-0.7-2.3-0.7-3.8c0-1.2,0.2-2.4,0.7-3.5c0.5-1.1,1.2-2.1,2-3c0.9-0.9,2-1.6,3.3-2.1c1.3-0.5,2.8-0.8,4.5-0.8
		c1.9,0,3.7,0.3,5.2,0.9s3,1.5,4.1,2.6L360.6,164.9z"/>
	<path fill="#6D6E71" d="M371.6,193.9v-35.3h4.3v14.3c1-1.1,2.2-2,3.5-2.6c1.3-0.7,2.7-1,4.4-1c1.3,0,2.5,0.2,3.5,0.7
		s1.9,1.1,2.5,1.9c0.7,0.8,1.2,1.8,1.5,2.9s0.5,2.4,0.5,3.8v15.5h-4.3v-15.5c0-1.8-0.4-3.3-1.3-4.3c-0.8-1-2.1-1.5-3.8-1.5
		c-1.3,0-2.4,0.3-3.5,0.9c-1.1,0.6-2.1,1.4-3,2.5v17.9H371.6z"/>
	<path fill="#6D6E71" d="M411.9,169.3c1.8,0,3.4,0.3,4.8,0.9c1.4,0.6,2.6,1.4,3.6,2.5s1.8,2.4,2.3,3.9c0.5,1.5,0.8,3.3,0.8,5.2
		c0,1.9-0.3,3.6-0.8,5.2c-0.5,1.5-1.3,2.8-2.3,3.9c-1,1.1-2.2,1.9-3.6,2.5c-1.4,0.6-3,0.9-4.8,0.9c-1.8,0-3.4-0.3-4.8-0.9
		c-1.4-0.6-2.6-1.4-3.7-2.5c-1-1.1-1.8-2.4-2.3-3.9c-0.5-1.5-0.8-3.3-0.8-5.2c0-1.9,0.3-3.6,0.8-5.2c0.5-1.5,1.3-2.9,2.3-3.9
		s2.2-1.9,3.7-2.5C408.5,169.6,410.1,169.3,411.9,169.3z M411.9,190.9c2.4,0,4.2-0.8,5.4-2.4c1.2-1.6,1.8-3.8,1.8-6.7
		c0-2.9-0.6-5.1-1.8-6.8s-3-2.4-5.4-2.4c-1.2,0-2.3,0.2-3.2,0.6c-0.9,0.4-1.6,1-2.2,1.8s-1,1.7-1.3,2.9s-0.4,2.4-0.4,3.9
		s0.1,2.7,0.4,3.9s0.7,2.1,1.3,2.9s1.3,1.4,2.2,1.8C409.6,190.7,410.7,190.9,411.9,190.9z"/>
	<path fill="#6D6E71" d="M432.6,202.1v-32.5h2.5c0.6,0,1,0.3,1.2,0.9l0.4,2.9c1-1.3,2.2-2.3,3.6-3c1.3-0.8,2.9-1.2,4.6-1.2
		c1.4,0,2.7,0.3,3.8,0.8c1.1,0.5,2.1,1.3,2.9,2.4c0.8,1,1.4,2.3,1.8,3.9c0.4,1.6,0.6,3.3,0.6,5.3c0,1.8-0.2,3.5-0.7,5
		c-0.5,1.5-1.2,2.9-2.1,4c-0.9,1.1-2,2-3.3,2.7c-1.3,0.6-2.8,1-4.4,1c-1.5,0-2.8-0.2-3.8-0.7c-1.1-0.5-2-1.2-2.8-2.1v10.7H432.6z
		 M443.4,172.7c-1.4,0-2.6,0.3-3.7,1c-1,0.6-2,1.5-2.9,2.7v11.7c0.8,1.1,1.6,1.8,2.6,2.2c0.9,0.4,2,0.6,3.1,0.6c2.3,0,4-0.8,5.2-2.4
		c1.2-1.6,1.8-3.9,1.8-6.9c0-1.6-0.1-2.9-0.4-4.1c-0.3-1.1-0.7-2.1-1.2-2.8c-0.5-0.7-1.2-1.3-1.9-1.6
		C445.2,172.8,444.4,172.7,443.4,172.7z"/>
	<path fill="#6D6E71" d="M462.9,202.1v-32.5h2.5c0.6,0,1,0.3,1.2,0.9l0.4,2.9c1-1.3,2.2-2.3,3.6-3c1.3-0.8,2.9-1.2,4.6-1.2
		c1.4,0,2.7,0.3,3.8,0.8c1.1,0.5,2.1,1.3,2.9,2.4c0.8,1,1.4,2.3,1.8,3.9c0.4,1.6,0.6,3.3,0.6,5.3c0,1.8-0.2,3.5-0.7,5
		c-0.5,1.5-1.2,2.9-2.1,4c-0.9,1.1-2,2-3.3,2.7c-1.3,0.6-2.8,1-4.4,1c-1.5,0-2.8-0.2-3.8-0.7c-1.1-0.5-2-1.2-2.8-2.1v10.7H462.9z
		 M473.7,172.7c-1.4,0-2.6,0.3-3.7,1c-1,0.6-2,1.5-2.9,2.7v11.7c0.8,1.1,1.6,1.8,2.6,2.2c0.9,0.4,2,0.6,3.1,0.6c2.3,0,4-0.8,5.2-2.4
		c1.2-1.6,1.8-3.9,1.8-6.9c0-1.6-0.1-2.9-0.4-4.1c-0.3-1.1-0.7-2.1-1.2-2.8c-0.5-0.7-1.2-1.3-1.9-1.6
		C475.5,172.8,474.7,172.7,473.7,172.7z"/>
	<path fill="#6D6E71" d="M502.8,169.3c1.5,0,2.8,0.2,4,0.7c1.2,0.5,2.3,1.2,3.2,2.1c0.9,0.9,1.6,2.1,2.1,3.4
		c0.5,1.4,0.8,2.9,0.8,4.6c0,0.7-0.1,1.1-0.2,1.3c-0.1,0.2-0.4,0.3-0.8,0.3h-16.2c0,1.5,0.2,2.9,0.6,4c0.4,1.1,0.9,2.1,1.6,2.8
		c0.7,0.8,1.5,1.3,2.4,1.7c0.9,0.4,2,0.6,3.1,0.6c1.1,0,2-0.1,2.8-0.4c0.8-0.2,1.4-0.5,2-0.8c0.6-0.3,1-0.6,1.4-0.8
		c0.4-0.2,0.7-0.4,1-0.4c0.4,0,0.6,0.1,0.8,0.4l1.2,1.6c-0.5,0.6-1.2,1.2-1.9,1.7c-0.7,0.5-1.5,0.9-2.4,1.2s-1.7,0.5-2.6,0.7
		c-0.9,0.2-1.8,0.2-2.7,0.2c-1.7,0-3.2-0.3-4.6-0.9c-1.4-0.6-2.6-1.4-3.7-2.5c-1-1.1-1.8-2.4-2.4-4.1s-0.9-3.5-0.9-5.6
		c0-1.7,0.3-3.3,0.8-4.7c0.5-1.5,1.3-2.7,2.2-3.8s2.2-1.9,3.6-2.5S501,169.3,502.8,169.3z M502.9,172.4c-2.1,0-3.7,0.6-4.9,1.8
		c-1.2,1.2-1.9,2.8-2.2,5H509c0-1-0.1-1.9-0.4-2.7c-0.3-0.8-0.7-1.5-1.2-2.1c-0.5-0.6-1.2-1.1-1.9-1.4
		C504.7,172.6,503.8,172.4,502.9,172.4z"/>
	<path fill="#6D6E71" d="M522.1,193.9v-24.3h2.4c0.5,0,0.8,0.1,1,0.3c0.2,0.2,0.3,0.5,0.4,0.9l0.3,3.8c0.8-1.7,1.9-3,3.1-4
		c1.2-1,2.7-1.4,4.3-1.4c0.7,0,1.3,0.1,1.8,0.2c0.5,0.2,1,0.4,1.5,0.6l-0.6,3.2c-0.1,0.4-0.4,0.6-0.7,0.6c-0.2,0-0.6-0.1-1-0.2
		c-0.5-0.2-1.1-0.2-1.9-0.2c-1.5,0-2.7,0.4-3.7,1.3c-1,0.9-1.8,2.1-2.5,3.8v15.5H522.1z"/>
	<path fill="#6D6E71" d="M559.2,173.6c-0.2,0.4-0.5,0.5-0.9,0.5c-0.2,0-0.5-0.1-0.8-0.3c-0.3-0.2-0.7-0.4-1.1-0.6
		c-0.4-0.2-1-0.4-1.6-0.6s-1.3-0.3-2.2-0.3c-0.7,0-1.4,0.1-1.9,0.3c-0.6,0.2-1.1,0.4-1.5,0.8c-0.4,0.3-0.7,0.7-0.9,1.1
		c-0.2,0.4-0.3,0.9-0.3,1.4c0,0.6,0.2,1.1,0.5,1.6c0.4,0.4,0.8,0.8,1.4,1.1c0.6,0.3,1.3,0.6,2,0.8s1.5,0.5,2.3,0.7s1.6,0.6,2.3,0.9
		c0.8,0.3,1.4,0.7,2,1.2c0.6,0.5,1.1,1.1,1.4,1.8s0.5,1.5,0.5,2.5c0,1.1-0.2,2.2-0.6,3.1c-0.4,1-1,1.8-1.8,2.5
		c-0.8,0.7-1.7,1.2-2.9,1.6c-1.1,0.4-2.4,0.6-3.9,0.6c-1.7,0-3.2-0.3-4.6-0.8c-1.4-0.6-2.5-1.3-3.5-2.1l1-1.6
		c0.1-0.2,0.3-0.4,0.5-0.5c0.2-0.1,0.4-0.2,0.7-0.2c0.3,0,0.6,0.1,0.9,0.3c0.3,0.2,0.7,0.5,1.2,0.7c0.5,0.3,1,0.5,1.7,0.7
		c0.6,0.2,1.5,0.3,2.4,0.3c0.8,0,1.6-0.1,2.2-0.3c0.6-0.2,1.1-0.5,1.6-0.9c0.4-0.4,0.7-0.8,0.9-1.3c0.2-0.5,0.3-1,0.3-1.5
		c0-0.7-0.2-1.2-0.5-1.7c-0.4-0.4-0.8-0.8-1.4-1.1c-0.6-0.3-1.3-0.6-2-0.8s-1.5-0.5-2.3-0.7c-0.8-0.3-1.6-0.5-2.3-0.9
		c-0.8-0.3-1.4-0.7-2-1.2c-0.6-0.5-1.1-1.1-1.4-1.8c-0.4-0.7-0.5-1.6-0.5-2.6c0-0.9,0.2-1.8,0.6-2.7c0.4-0.9,0.9-1.6,1.7-2.3
		s1.6-1.2,2.7-1.5c1.1-0.4,2.3-0.6,3.7-0.6c1.6,0,3,0.3,4.3,0.8c1.3,0.5,2.4,1.2,3.3,2.1L559.2,173.6z"/>
	<path fill="#6D6E71" d="M568.7,191c0-0.4,0.1-0.7,0.2-1s0.3-0.6,0.6-0.9c0.2-0.2,0.5-0.4,0.9-0.6c0.4-0.1,0.7-0.2,1.2-0.2
		c0.5,0,0.9,0.1,1.3,0.3c0.4,0.2,0.7,0.4,0.9,0.7c0.2,0.3,0.4,0.7,0.6,1.1c0.1,0.4,0.2,0.9,0.2,1.3c0,0.7-0.1,1.5-0.3,2.2
		c-0.2,0.8-0.5,1.5-0.9,2.3c-0.4,0.8-0.9,1.5-1.4,2.2c-0.6,0.7-1.2,1.4-1.9,2l-0.7-0.7c-0.2-0.2-0.3-0.4-0.3-0.7
		c0-0.2,0.1-0.4,0.3-0.6c0.2-0.2,0.4-0.4,0.6-0.7s0.5-0.6,0.8-1s0.5-0.8,0.7-1.3c0.2-0.5,0.4-1,0.5-1.5h-0.3c-0.4,0-0.8-0.1-1.1-0.2
		c-0.3-0.1-0.6-0.3-0.9-0.6s-0.4-0.6-0.6-0.9S568.7,191.4,568.7,191z"/>
	<path fill="#6D6E71" d="M602.8,179.6v14.3h-4.6v-34.4h9.7c2.2,0,4.1,0.2,5.6,0.7c1.6,0.4,2.9,1.1,3.9,1.9c1,0.8,1.8,1.8,2.3,3
		s0.7,2.5,0.7,3.9c0,1.2-0.2,2.3-0.6,3.4s-0.9,2-1.7,2.8c-0.7,0.8-1.6,1.6-2.7,2.1c-1,0.6-2.2,1-3.6,1.3c0.6,0.3,1.1,0.8,1.5,1.5
		l10,13.6h-4.1c-0.8,0-1.5-0.3-1.9-1l-8.9-12.3c-0.3-0.4-0.6-0.7-0.9-0.8c-0.3-0.2-0.8-0.3-1.4-0.3H602.8z M602.8,176.2h4.9
		c1.4,0,2.6-0.2,3.6-0.5c1-0.3,1.9-0.8,2.6-1.4c0.7-0.6,1.2-1.3,1.6-2.1c0.4-0.8,0.5-1.8,0.5-2.8c0-2-0.7-3.6-2-4.6
		c-1.4-1-3.4-1.6-6-1.6h-5.1V176.2z"/>
	<path fill="#6D6E71" d="M641.3,169.3c1.5,0,2.8,0.2,4,0.7c1.2,0.5,2.3,1.2,3.2,2.1c0.9,0.9,1.6,2.1,2.1,3.4
		c0.5,1.4,0.8,2.9,0.8,4.6c0,0.7-0.1,1.1-0.2,1.3c-0.1,0.2-0.4,0.3-0.8,0.3h-16.2c0,1.5,0.2,2.9,0.6,4c0.4,1.1,0.9,2.1,1.6,2.8
		c0.7,0.8,1.5,1.3,2.4,1.7c0.9,0.4,2,0.6,3.1,0.6c1.1,0,2-0.1,2.8-0.4c0.8-0.2,1.4-0.5,2-0.8c0.6-0.3,1-0.6,1.4-0.8
		c0.4-0.2,0.7-0.4,1-0.4c0.4,0,0.6,0.1,0.8,0.4l1.2,1.6c-0.5,0.6-1.2,1.2-1.9,1.7c-0.7,0.5-1.5,0.9-2.4,1.2s-1.7,0.5-2.6,0.7
		c-0.9,0.2-1.8,0.2-2.7,0.2c-1.7,0-3.2-0.3-4.6-0.9c-1.4-0.6-2.6-1.4-3.7-2.5c-1-1.1-1.8-2.4-2.4-4.1s-0.9-3.5-0.9-5.6
		c0-1.7,0.3-3.3,0.8-4.7c0.5-1.5,1.3-2.7,2.2-3.8s2.2-1.9,3.6-2.5S639.6,169.3,641.3,169.3z M641.4,172.4c-2.1,0-3.7,0.6-4.9,1.8
		c-1.2,1.2-1.9,2.8-2.2,5h13.2c0-1-0.1-1.9-0.4-2.7c-0.3-0.8-0.7-1.5-1.2-2.1c-0.5-0.6-1.2-1.1-1.9-1.4
		C643.3,172.6,642.4,172.4,641.4,172.4z"/>
	<path fill="#6D6E71" d="M678.5,193.9h-1.9c-0.4,0-0.8-0.1-1-0.2c-0.3-0.1-0.4-0.4-0.5-0.8l-0.5-2.3c-0.6,0.6-1.3,1.1-1.9,1.5
		c-0.6,0.5-1.2,0.8-1.9,1.2s-1.4,0.5-2.1,0.7c-0.8,0.2-1.6,0.2-2.5,0.2c-0.9,0-1.8-0.1-2.6-0.4c-0.8-0.3-1.5-0.7-2.1-1.2
		s-1.1-1.2-1.5-2c-0.4-0.8-0.5-1.8-0.5-2.9c0-1,0.3-1.9,0.8-2.8s1.4-1.7,2.6-2.4s2.7-1.3,4.6-1.7c1.9-0.4,4.2-0.7,7-0.7v-1.9
		c0-1.9-0.4-3.3-1.2-4.3c-0.8-1-2-1.5-3.6-1.5c-1,0-1.9,0.1-2.6,0.4s-1.3,0.6-1.8,0.9c-0.5,0.3-1,0.6-1.3,0.9
		c-0.4,0.3-0.7,0.4-1.1,0.4c-0.3,0-0.5-0.1-0.8-0.2c-0.2-0.2-0.4-0.3-0.5-0.6l-0.8-1.4c1.3-1.3,2.8-2.3,4.3-2.9c1.5-0.6,3.3-1,5.2-1
		c1.4,0,2.6,0.2,3.6,0.7c1.1,0.4,1.9,1.1,2.7,1.9c0.7,0.8,1.3,1.8,1.6,2.9c0.4,1.1,0.6,2.4,0.6,3.7V193.9z M667.4,191.3
		c0.8,0,1.4-0.1,2.1-0.2c0.6-0.2,1.2-0.4,1.8-0.6c0.6-0.3,1.1-0.6,1.6-1c0.5-0.4,1-0.9,1.5-1.4v-5c-2,0-3.6,0.1-5,0.4
		c-1.4,0.2-2.5,0.6-3.4,1c-0.9,0.4-1.5,0.9-1.9,1.4s-0.6,1.2-0.6,1.8c0,0.6,0.1,1.2,0.3,1.7c0.2,0.5,0.5,0.8,0.8,1.1
		c0.4,0.3,0.8,0.5,1.2,0.7S666.9,191.3,667.4,191.3z"/>
	<path fill="#6D6E71" d="M693.6,158.6v35.3h-4.3v-35.3H693.6z"/>
	<path fill="#6D6E71" d="M724.2,193.9h-4.7v-34.4h4.7V193.9z"/>
	<path fill="#6D6E71" d="M736.6,193.9v-24.3h2.5c0.6,0,1,0.3,1.2,0.9l0.3,2.6c1.1-1.2,2.2-2.1,3.5-2.8c1.3-0.7,2.8-1.1,4.5-1.1
		c1.3,0,2.5,0.2,3.5,0.7s1.9,1.1,2.5,1.9c0.7,0.8,1.2,1.8,1.5,2.9s0.5,2.4,0.5,3.8v15.5h-4.3v-15.5c0-1.8-0.4-3.3-1.3-4.3
		c-0.8-1-2.1-1.5-3.8-1.5c-1.3,0-2.4,0.3-3.5,0.9c-1.1,0.6-2.1,1.4-3,2.5v17.9H736.6z"/>
	<path fill="#6D6E71" d="M781,173.6c-0.2,0.4-0.5,0.5-0.9,0.5c-0.2,0-0.5-0.1-0.8-0.3c-0.3-0.2-0.7-0.4-1.1-0.6
		c-0.4-0.2-1-0.4-1.6-0.6s-1.3-0.3-2.2-0.3c-0.7,0-1.4,0.1-1.9,0.3c-0.6,0.2-1.1,0.4-1.5,0.8c-0.4,0.3-0.7,0.7-0.9,1.1
		c-0.2,0.4-0.3,0.9-0.3,1.4c0,0.6,0.2,1.1,0.5,1.6c0.4,0.4,0.8,0.8,1.4,1.1c0.6,0.3,1.3,0.6,2,0.8s1.5,0.5,2.3,0.7s1.6,0.6,2.3,0.9
		c0.8,0.3,1.4,0.7,2,1.2c0.6,0.5,1.1,1.1,1.4,1.8s0.5,1.5,0.5,2.5c0,1.1-0.2,2.2-0.6,3.1c-0.4,1-1,1.8-1.8,2.5
		c-0.8,0.7-1.7,1.2-2.9,1.6c-1.1,0.4-2.4,0.6-3.9,0.6c-1.7,0-3.2-0.3-4.6-0.8c-1.4-0.6-2.5-1.3-3.5-2.1l1-1.6
		c0.1-0.2,0.3-0.4,0.5-0.5c0.2-0.1,0.4-0.2,0.7-0.2c0.3,0,0.6,0.1,0.9,0.3c0.3,0.2,0.7,0.5,1.2,0.7c0.5,0.3,1,0.5,1.7,0.7
		c0.6,0.2,1.5,0.3,2.4,0.3c0.8,0,1.6-0.1,2.2-0.3c0.6-0.2,1.1-0.5,1.6-0.9c0.4-0.4,0.7-0.8,0.9-1.3c0.2-0.5,0.3-1,0.3-1.5
		c0-0.7-0.2-1.2-0.5-1.7c-0.4-0.4-0.8-0.8-1.4-1.1c-0.6-0.3-1.3-0.6-2-0.8s-1.5-0.5-2.3-0.7c-0.8-0.3-1.6-0.5-2.3-0.9
		c-0.8-0.3-1.4-0.7-2-1.2c-0.6-0.5-1.1-1.1-1.4-1.8c-0.4-0.7-0.5-1.6-0.5-2.6c0-0.9,0.2-1.8,0.6-2.7c0.4-0.9,0.9-1.6,1.7-2.3
		s1.6-1.2,2.7-1.5c1.1-0.4,2.3-0.6,3.7-0.6c1.6,0,3,0.3,4.3,0.8c1.3,0.5,2.4,1.2,3.3,2.1L781,173.6z"/>
	<path fill="#6D6E71" d="M797.4,162c0,0.4-0.1,0.8-0.3,1.2c-0.2,0.4-0.4,0.7-0.7,1s-0.6,0.5-1,0.7c-0.4,0.2-0.8,0.2-1.2,0.2
		c-0.4,0-0.8-0.1-1.2-0.2c-0.4-0.2-0.7-0.4-1-0.7c-0.3-0.3-0.5-0.6-0.7-1c-0.2-0.4-0.2-0.7-0.2-1.2c0-0.4,0.1-0.8,0.2-1.2
		c0.2-0.4,0.4-0.7,0.7-1c0.3-0.3,0.6-0.5,1-0.7c0.4-0.2,0.7-0.2,1.2-0.2c0.4,0,0.8,0.1,1.2,0.2c0.4,0.2,0.7,0.4,1,0.7s0.5,0.6,0.7,1
		C797.3,161.2,797.4,161.6,797.4,162z M796.5,169.6v24.3h-4.3v-24.3H796.5z"/>
	<path fill="#6D6E71" d="M816,169.2c1.1,0,2,0.1,3,0.3c0.9,0.2,1.8,0.6,2.5,1h6.6v1.6c0,0.5-0.3,0.9-1,1l-2.8,0.4
		c0.5,1,0.8,2.2,0.8,3.5c0,1.2-0.2,2.3-0.7,3.2c-0.5,1-1.1,1.8-1.9,2.5c-0.8,0.7-1.8,1.2-2.9,1.6c-1.1,0.4-2.3,0.6-3.7,0.6
		c-1.1,0-2.2-0.1-3.2-0.4c-0.5,0.3-0.9,0.7-1.2,1.1s-0.4,0.8-0.4,1.1c0,0.6,0.2,1,0.7,1.4c0.5,0.3,1.1,0.5,1.8,0.7
		c0.8,0.1,1.6,0.2,2.6,0.2s2,0,3,0c1,0,2,0.1,3,0.3c1,0.2,1.8,0.5,2.6,0.9c0.8,0.4,1.4,1,1.8,1.7c0.5,0.7,0.7,1.6,0.7,2.8
		c0,1.1-0.3,2.1-0.8,3.1c-0.5,1-1.3,1.9-2.2,2.6s-2.2,1.4-3.6,1.8c-1.4,0.5-3,0.7-4.8,0.7c-1.8,0-3.3-0.2-4.7-0.5
		c-1.3-0.4-2.4-0.8-3.3-1.4c-0.9-0.6-1.5-1.3-2-2.1c-0.4-0.8-0.7-1.6-0.7-2.4c0-1.2,0.4-2.2,1.1-3.1s1.8-1.5,3.1-2
		c-0.7-0.3-1.2-0.7-1.6-1.3c-0.4-0.5-0.6-1.2-0.6-2.1c0-0.4,0.1-0.7,0.2-1.1c0.1-0.4,0.3-0.7,0.6-1.1s0.6-0.7,1-1.1
		c0.4-0.3,0.8-0.6,1.3-0.9c-1.2-0.7-2.1-1.6-2.8-2.7c-0.7-1.1-1-2.4-1-3.9c0-1.2,0.2-2.3,0.7-3.2s1.1-1.8,1.9-2.5
		c0.8-0.7,1.8-1.2,2.9-1.6S814.6,169.2,816,169.2z M823.6,195.2c0-0.6-0.2-1.1-0.5-1.5s-0.8-0.7-1.4-0.9s-1.2-0.4-2-0.5
		s-1.5-0.1-2.4-0.1s-1.7,0-2.5,0s-1.7-0.1-2.5-0.3c-0.9,0.4-1.7,1-2.2,1.6s-0.9,1.4-0.9,2.2c0,0.5,0.1,1.1,0.4,1.5
		c0.3,0.5,0.7,0.9,1.3,1.2c0.6,0.3,1.3,0.6,2.2,0.8s1.9,0.3,3.1,0.3c1.2,0,2.2-0.1,3.1-0.3s1.7-0.5,2.3-0.9c0.6-0.4,1.1-0.9,1.5-1.4
		C823.4,196.4,823.6,195.8,823.6,195.2z M816,182.1c0.9,0,1.6-0.1,2.3-0.4c0.7-0.2,1.2-0.6,1.7-1s0.8-0.9,1-1.5
		c0.2-0.6,0.3-1.3,0.3-2c0-1.5-0.5-2.7-1.4-3.5c-0.9-0.9-2.2-1.3-3.9-1.3c-1.7,0-3,0.4-3.9,1.3c-0.9,0.9-1.4,2.1-1.4,3.5
		c0,0.7,0.1,1.4,0.3,2c0.2,0.6,0.6,1.1,1,1.5s1,0.8,1.7,1C814.4,181.9,815.1,182.1,816,182.1z"/>
	<path fill="#6D6E71" d="M836.2,193.9v-35.3h4.3v14.3c1-1.1,2.2-2,3.5-2.6c1.3-0.7,2.7-1,4.4-1c1.3,0,2.5,0.2,3.5,0.7
		s1.9,1.1,2.5,1.9c0.7,0.8,1.2,1.8,1.5,2.9s0.5,2.4,0.5,3.8v15.5h-4.3v-15.5c0-1.8-0.4-3.3-1.3-4.3c-0.8-1-2.1-1.5-3.8-1.5
		c-1.3,0-2.4,0.3-3.5,0.9c-1.1,0.6-2.1,1.4-3,2.5v17.9H836.2z"/>
	<path fill="#6D6E71" d="M874,194.3c-1.9,0-3.4-0.5-4.4-1.6c-1-1.1-1.5-2.6-1.5-4.6v-14.9h-2.9c-0.3,0-0.5-0.1-0.6-0.2
		c-0.2-0.2-0.3-0.4-0.3-0.7v-1.7l4-0.5l1-7.5c0-0.2,0.1-0.4,0.3-0.6c0.2-0.2,0.4-0.2,0.7-0.2h2.2v8.4h7v3.1h-7v14.6
		c0,1,0.2,1.8,0.7,2.3s1.1,0.7,1.9,0.7c0.4,0,0.8-0.1,1.2-0.2c0.3-0.1,0.6-0.3,0.9-0.4c0.2-0.1,0.4-0.3,0.6-0.4
		c0.2-0.1,0.3-0.2,0.4-0.2c0.2,0,0.4,0.1,0.6,0.4l1.2,2c-0.7,0.7-1.6,1.2-2.7,1.6C876.2,194.1,875.1,194.3,874,194.3z"/>
	<path fill="#6D6E71" d="M902.3,173.6c-0.2,0.4-0.5,0.5-0.9,0.5c-0.2,0-0.5-0.1-0.8-0.3c-0.3-0.2-0.7-0.4-1.1-0.6
		c-0.4-0.2-1-0.4-1.6-0.6s-1.3-0.3-2.2-0.3c-0.7,0-1.4,0.1-1.9,0.3c-0.6,0.2-1.1,0.4-1.5,0.8c-0.4,0.3-0.7,0.7-0.9,1.1
		c-0.2,0.4-0.3,0.9-0.3,1.4c0,0.6,0.2,1.1,0.5,1.6c0.4,0.4,0.8,0.8,1.4,1.1c0.6,0.3,1.3,0.6,2,0.8s1.5,0.5,2.3,0.7s1.6,0.6,2.3,0.9
		c0.8,0.3,1.4,0.7,2,1.2c0.6,0.5,1.1,1.1,1.4,1.8s0.5,1.5,0.5,2.5c0,1.1-0.2,2.2-0.6,3.1c-0.4,1-1,1.8-1.8,2.5
		c-0.8,0.7-1.7,1.2-2.9,1.6c-1.1,0.4-2.4,0.6-3.9,0.6c-1.7,0-3.2-0.3-4.6-0.8c-1.4-0.6-2.5-1.3-3.5-2.1l1-1.6
		c0.1-0.2,0.3-0.4,0.5-0.5c0.2-0.1,0.4-0.2,0.7-0.2c0.3,0,0.6,0.1,0.9,0.3c0.3,0.2,0.7,0.5,1.2,0.7c0.5,0.3,1,0.5,1.7,0.7
		c0.6,0.2,1.5,0.3,2.4,0.3c0.8,0,1.6-0.1,2.2-0.3c0.6-0.2,1.1-0.5,1.6-0.9c0.4-0.4,0.7-0.8,0.9-1.3c0.2-0.5,0.3-1,0.3-1.5
		c0-0.7-0.2-1.2-0.5-1.7c-0.4-0.4-0.8-0.8-1.4-1.1c-0.6-0.3-1.3-0.6-2-0.8s-1.5-0.5-2.3-0.7c-0.8-0.3-1.6-0.5-2.3-0.9
		c-0.8-0.3-1.4-0.7-2-1.2c-0.6-0.5-1.1-1.1-1.4-1.8c-0.4-0.7-0.5-1.6-0.5-2.6c0-0.9,0.2-1.8,0.6-2.7c0.4-0.9,0.9-1.6,1.7-2.3
		s1.6-1.2,2.7-1.5c1.1-0.4,2.3-0.6,3.7-0.6c1.6,0,3,0.3,4.3,0.8c1.3,0.5,2.4,1.2,3.3,2.1L902.3,173.6z"/>
</g>
</svg>
